<?xml version="1.0" encoding="utf-8" ?><svg xmlns="http://www.w3.org/2000/svg" xmlns:xlink="http://www.w3.org/1999/xlink" width="1856" height="1036" viewBox="0 0 1856 1036" xmlns:c2pa="http://c2pa.org/manifest"><metadata><c2pa:manifest>AAA692p1bWIAAAAeanVtZGMycGEAEQAQgAAAqgA4m3EDYzJwYQAAAA6EanVtYgAAAEdqdW1kYzJtYQARABCAAACqADibcQN1cm46YzJwYTphMTc1MjEwYi1kOTdhLTQ2OTUtOGJjYS0yOTBmYWEwNzZmZTYAAAADtWp1bWIAAAApanVtZGMyYXMAEQAQgAAAqgA4m3EDYzJwYS5hc3NlcnRpb25zAAAAAMlqdW1iAAAARGp1bWRjYm9yABEAEIAAAKoAOJtxE2MycGEuaW5ncmVkaWVudC52MwAAAAAYYzJzaPi3Spv0vKorGOt5/mgHoLQAAAB9Y2JvcqRscmVsYXRpb25zaGlwaHBhcmVudE9maGRjOnRpdGxlZnNvdXJjZWlkYzpmb3JtYXRqaW1hZ2Uvd2VicGppbnN0YW5jZUlEeCx4bXA6aWlkOmRjMGEwNDMzLWVkYWMtNGQwYi05MjFiLTQ3MmI3NTM4NTE2NQAAAfVqdW1iAAAAQWp1bWRjYm9yABEAEIAAAKoAOJtxE2MycGEuYWN0aW9ucy52MgAAAAAYYzJzaE9hfqAEpNhZWqLJE8dL/s8AAAGsY2JvcqFnYWN0aW9uc4KiZmFjdGlvbmtjMnBhLm9wZW5lZGpwYXJhbWV0ZXJzoWtpbmdyZWRpZW50c4GiY3VybHgtc2VsZiNqdW1iZj1jMnBhLmFzc2VydGlvbnMvYzJwYS5pbmdyZWRpZW50LnYzZGhhc2hYILMYvbmaws5y1Ps53D+t3wKM1zh58n5XrS5Ms1ZxqLmBpGZhY3Rpb25rYzJwYS5lZGl0ZWRqcGFyYW1ldGVyc6FraW5ncmVkaWVudHOBomN1cmx4LXNlbGYjanVtYmY9YzJwYS5hc3NlcnRpb25zL2MycGEuaW5ncmVkaWVudC52M2RoYXNoWCCzGL25msLOctT7Odw/rd8CjNc4efJ+V60uTLNWcai5gXFkaWdpdGFsU291cmNlVHlwZXhTaHR0cDovL2N2LmlwdGMub3JnL25ld3Njb2Rlcy9kaWdpdGFsc291cmNldHlwZS9jb21wb3NpdGVXaXRoVHJhaW5lZEFsZ29yaXRobWljTWVkaWFrZGVzY3JpcHRpb252Q3JlYXRlZCBieSBSZWNyYWZ0IEFJLgAAAMZqdW1iAAAAQGp1bWRjYm9yABEAEIAAAKoAOJtxE2MycGEuaGFzaC5kYXRhAAAAABhjMnNoVBp2Z6ZAKCmg9uHP9ge2RAAAAH5jYm9ypWpleGNsdXNpb25zgaJlc3RhcnQaABhWmmZsZW5ndGgZDrJkbmFtZW5qdW1iZiBtYW5pZmVzdGNhbGdmc2hhMjU2ZGhhc2hYIIfAWZKlF7TlHibfizgR1QJvLprDzerl0LBA/bFPUt4NY3BhZEgAAAAAAAAAAAAAAqRqdW1iAAAAJ2p1bWRjMmNsABEAEIAAAKoAOJtxA2MycGEuY2xhaW0udjIAAAACdWNib3Knamluc3RhbmNlSUR4LHhtcDppaWQ6OTljYWM5MWQtODdkZC00MDRiLTljN2UtMTRjYjk1MzFlYWJjdGNsYWltX2dlbmVyYXRvcl9pbmZvo2RuYW1lanJlY3JhZnQuYWlndmVyc2lvbngoODFjZTgyZTJjNWMzY2JmYmU4YzZmYmUxNzlkNWY4ZDkxYzQwOWNlMXdvcmcuY29udGVudGF1dGguYzJwYV9yc2YwLjkwLjdpc2lnbmF0dXJleE1zZWxmI2p1bWJmPS9jMnBhL3VybjpjMnBhOmExNzUyMTBiLWQ5N2EtNDY5NS04YmNhLTI5MGZhYTA3NmZlNi9jMnBhLnNpZ25hdHVyZXJjcmVhdGVkX2Fzc2VydGlvbnOComN1cmx4KnNlbGYjanVtYmY9YzJwYS5hc3NlcnRpb25zL2MycGEuYWN0aW9ucy52MmRoYXNoWCB/Blx88SBcONvibG/QUCqL/CejnEjkER6Kt+x7uTt1DqJjdXJseClzZWxmI2p1bWJmPWMycGEuYXNzZXJ0aW9ucy9jMnBhLmhhc2guZGF0YWRoYXNoWCAHJd1hPaSzb9pIQuCwRIY4JZh9b3jHk4iJ3407NhnQe3NnYXRoZXJlZF9hc3NlcnRpb25zgaJjdXJseC1zZWxmI2p1bWJmPWMycGEuYXNzZXJ0aW9ucy9jMnBhLmluZ3JlZGllbnQudjNkaGFzaFggsxi9uZrCznLU+zncP63fAozXOHnyfletLkyzVnGouYFoZGM6dGl0bGV4GlJlY3JhZnQgQUkgR2VuZXJhdGVkIEltYWdlY2FsZ2ZzaGEyNTYAAAfcanVtYgAAAChqdW1kYzJjcwARABCAAACqADibcQNjMnBhLnNpZ25hdHVyZQAAAAesY2JvctKEWQOwogEmGCGCWQHnMIIB4zCCAYmgAwIBAgIJALfeWmNDUW56MAoGCCqGSM49BAMCMEAxHzAdBgNVBAMMFlJlY3JhZnQgU3RhZ2luZyBEZXYgQ0ExEDAOBgNVBAoMB1JlY3JhZnQxCzAJBgNVBAYTAlVTMB4XDTI2MDYxMjE5NDM1MFoXDTI3MDYxMjE5NDM1MFowNzELMAkGA1UEBhMCVVMxEzARBgNVBAoTClJlY3JhZnQgQUkxEzARBgNVBAMTCnJlY3JhZnQuYWkwWTATBgcqhkjOPQIBBggqhkjOPQMBBwNCAARKaTVbACsg/DeG3LeOxYdID/VA6EFG73E6Oknb+KIiCFJygRUz4ueN2z/t2qYb6CIUvS8RvgOiiClfoqsYtw81o3UwczAMBgNVHRMBAf8EAjAAMA4GA1UdDwEB/wQEAwIGwDATBgNVHSUEDDAKBggrBgEFBQcDBDAdBgNVHQ4EFgQULzHpBen96SL1y4IPHa8MkMshXf0wHwYDVR0jBBgwFoAUAgsqOBrKqpdK//m/kxZo7ZR4ebcwCgYIKoZIzj0EAwIDSAAwRQIgU8hKW0aXvvk8SQgVFNkax69Ym9ae8GsT2RZTQw+B51ACIQC0D4BkEoRD4N0r2ZRkNy0HZaW3WICy/QZGN95ilF4yzFkBvTCCAbkwggFfoAMCAQICCQCc+Wg7T6ATbzAKBggqhkjOPQQDAjBAMR8wHQYDVQQDDBZSZWNyYWZ0IFN0YWdpbmcgRGV2IENBMRAwDgYDVQQKDAdSZWNyYWZ0MQswCQYDVQQGEwJVUzAeFw0yNjA2MTIxOTQwMTZaFw0yODA2MTExOTQwMTZaMEAxHzAdBgNVBAMMFlJlY3JhZnQgU3RhZ2luZyBEZXYgQ0ExEDAOBgNVBAoMB1JlY3JhZnQxCzAJBgNVBAYTAlVTMFkwEwYHKoZIzj0CAQYIKoZIzj0DAQcDQgAEQ9IQBlcVbKaKPYrQSfOhL/00s7xUDC7RinIuLO/I1k99y9yh6oWF9kPxaP+tx1v1PeOL3yrVquJ730H0ZGiDyqNCMEAwDwYDVR0TAQH/BAUwAwEB/zAOBgNVHQ8BAf8EBAMCAYYwHQYDVR0OBBYEFAILKjgayqqXSv/5v5MWaO2UeHm3MAoGCCqGSM49BAMCA0gAMEUCIFQwNImLlYDeQhjgF+ZiqTbgcuzSqmOJw3Q2lQ/hu83FAiEA9O8cLm/xfoVLqB4jtdbuHzi3WL+p2RN+DRGkwpYswVuhY3BhZFkDpAAAAAAAAAAAAAAAAAAAAAAAAAAAAAAAAAAAAAAAAAAAAAAAAAAAAAAAAAAAAAAAAAAAAAAAAAAAAAAAAAAAAAAAAAAAAAAAAAAAAAAAAAAAAAAAAAAAAAAAAAAAAAAAAAAAAAAAAAAAAAAAAAAAAAAAAAAAAAAAAAAAAAAAAAAAAAAAAAAAAAAAAAAAAAAAAAAAAAAAAAAAAAAAAAAAAAAAAAAAAAAAAAAAAAAAAAAAAAAAAAAAAAAAAAAAAAAAAAAAAAAAAAAAAAAAAAAAAAAAAAAAAAAAAAAAAAAAAAAAAAAAAAAAAAAAAAAAAAAAAAAAAAAAAAAAAAAAAAAAAAAAAAAAAAAAAAAAAAAAAAAAAAAAAAAAAAAAAAAAAAAAAAAAAAAAAAAAAAAAAAAAAAAAAAAAAAAAAAAAAAAAAAAAAAAAAAAAAAAAAAAAAAAAAAAAAAAAAAAAAAAAAAAAAAAAAAAAAAAAAAAAAAAAAAAAAAAAAAAAAAAAAAAAAAAAAAAAAAAAAAAAAAAAAAAAAAAAAAAAAAAAAAAAAAAAAAAAAAAAAAAAAAAAAAAAAAAAAAAAAAAAAAAAAAAAAAAAAAAAAAAAAAAAAAAAAAAAAAAAAAAAAAAAAAAAAAAAAAAAAAAAAAAAAAAAAAAAAAAAAAAAAAAAAAAAAAAAAAAAAAAAAAAAAAAAAAAAAAAAAAAAAAAAAAAAAAAAAAAAAAAAAAAAAAAAAAAAAAAAAAAAAAAAAAAAAAAAAAAAAAAAAAAAAAAAAAAAAAAAAAAAAAAAAAAAAAAAAAAAAAAAAAAAAAAAAAAAAAAAAAAAAAAAAAAAAAAAAAAAAAAAAAAAAAAAAAAAAAAAAAAAAAAAAAAAAAAAAAAAAAAAAAAAAAAAAAAAAAAAAAAAAAAAAAAAAAAAAAAAAAAAAAAAAAAAAAAAAAAAAAAAAAAAAAAAAAAAAAAAAAAAAAAAAAAAAAAAAAAAAAAAAAAAAAAAAAAAAAAAAAAAAAAAAAAAAAAAAAAAAAAAAAAAAAAAAAAAAAAAAAAAAAAAAAAAAAAAAAAAAAAAAAAAAAAAAAAAAAAAAAAAAAAAAAAAAAAAAAAAAAAAAAAAAAAAAAAAAAAAAAAAAAAAAAAAAAAAAAAAAAAAAAAAAAAAAAAAAAAAAAAAAAAAAAAAAAAAAAAAAAAAAAAAAAAAAAAAAAAAAAAAAAAAAAAAAAAAAAAAAAAAAAAAAAAAAAAAAAAAAAAA9lhAyUe0O3Ypjt1mziu5EJ2pXev5GadTl/T/G/nJbuaO5fOs4ExeUOO3GaqCEIUNciLYsmKTCkzWgZ1GY15vpcYdfgAAFktqdW1iAAAAR2p1bWRjMm1hABEAEIAAAKoAOJtxA3VybjpjMnBhOjIwNzdjNDhkLWMzZGMtNGUxNC04YTE0LTdkOWZjMGE3YTU0NAAAAAt8anVtYgAAAClqdW1kYzJhcwARABCAAACqADibcQNjMnBhLmFzc2VydGlvbnMAAAAIkmp1bWIAAABEanVtZGNib3IAEQAQgAAAqgA4m3ETYzJwYS5pbmdyZWRpZW50LnYzAAAAABhjMnNoPg4xSUNY/dSjcpYBhwCnoAAACEZjYm9yp2xyZWxhdGlvbnNoaXBocGFyZW50T2ZoZGM6dGl0bGVmc291cmNlaWRjOmZvcm1hdGppbWFnZS93ZWJwcXZhbGlkYXRpb25SZXN1bHRzom5hY3RpdmVNYW5pZmVzdKNnc3VjY2Vzc4ajZGNvZGV4HWNsYWltU2lnbmF0dXJlLmluc2lkZVZhbGlkaXR5Y3VybHhNc2VsZiNqdW1iZj0vYzJwYS91cm46YzJwYTphMTc1MjEwYi1kOTdhLTQ2OTUtOGJjYS0yOTBmYWEwNzZmZTYvYzJwYS5zaWduYXR1cmVrZXhwbGFuYXRpb251Y2xhaW0gc2lnbmF0dXJlIHZhbGlko2Rjb2RleBhjbGFpbVNpZ25hdHVyZS52YWxpZGF0ZWRjdXJseE1zZWxmI2p1bWJmPS9jMnBhL3VybjpjMnBhOmExNzUyMTBiLWQ5N2EtNDY5NS04YmNhLTI5MGZhYTA3NmZlNi9jMnBhLnNpZ25hdHVyZWtleHBsYW5hdGlvbnVjbGFpbSBzaWduYXR1cmUgdmFsaWSjZGNvZGV4GWFzc2VydGlvbi5oYXNoZWRVUkkubWF0Y2hjdXJseF5zZWxmI2p1bWJmPS9jMnBhL3VybjpjMnBhOmExNzUyMTBiLWQ5N2EtNDY5NS04YmNhLTI5MGZhYTA3NmZlNi9jMnBhLmFzc2VydGlvbnMvYzJwYS5hY3Rpb25zLnYya2V4cGxhbmF0aW9ueD5oYXNoZWQgdXJpIG1hdGNoZWQ6IHNlbGYjanVtYmY9YzJwYS5hc3NlcnRpb25zL2MycGEuYWN0aW9ucy52MqNkY29kZXgZYXNzZXJ0aW9uLmhhc2hlZFVSSS5tYXRjaGN1cmx4XXNlbGYjanVtYmY9L2MycGEvdXJuOmMycGE6YTE3NTIxMGItZDk3YS00Njk1LThiY2EtMjkwZmFhMDc2ZmU2L2MycGEuYXNzZXJ0aW9ucy9jMnBhLmhhc2guZGF0YWtleHBsYW5hdGlvbng9aGFzaGVkIHVyaSBtYXRjaGVkOiBzZWxmI2p1bWJmPWMycGEuYXNzZXJ0aW9ucy9jMnBhLmhhc2guZGF0YaNkY29kZXgZYXNzZXJ0aW9uLmhhc2hlZFVSSS5tYXRjaGN1cmx4YXNlbGYjanVtYmY9L2MycGEvdXJuOmMycGE6YTE3NTIxMGItZDk3YS00Njk1LThiY2EtMjkwZmFhMDc2ZmU2L2MycGEuYXNzZXJ0aW9ucy9jMnBhLmluZ3JlZGllbnQudjNrZXhwbGFuYXRpb254QWhhc2hlZCB1cmkgbWF0Y2hlZDogc2VsZiNqdW1iZj1jMnBhLmFzc2VydGlvbnMvYzJwYS5pbmdyZWRpZW50LnYzo2Rjb2RleBhhc3NlcnRpb24uZGF0YUhhc2gubWF0Y2hjdXJseF1zZWxmI2p1bWJmPS9jMnBhL3VybjpjMnBhOmExNzUyMTBiLWQ5N2EtNDY5NS04YmNhLTI5MGZhYTA3NmZlNi9jMnBhLmFzc2VydGlvbnMvYzJwYS5oYXNoLmRhdGFrZXhwbGFuYXRpb25vZGF0YSBoYXNoIHZhbGlkbWluZm9ybWF0aW9uYWyAZ2ZhaWx1cmWBo2Rjb2RleBtzaWduaW5nQ3JlZGVudGlhbC51bnRydXN0ZWRjdXJseE1zZWxmI2p1bWJmPS9jMnBhL3VybjpjMnBhOmExNzUyMTBiLWQ5N2EtNDY5NS04YmNhLTI5MGZhYTA3NmZlNi9jMnBhLnNpZ25hdHVyZWtleHBsYW5hdGlvbngdc2lnbmluZyBjZXJ0aWZpY2F0ZSB1bnRydXN0ZWRwaW5ncmVkaWVudERlbHRhc4GidmluZ3JlZGllbnRBc3NlcnRpb25VUkl4YXNlbGYjanVtYmY9L2MycGEvdXJuOmMycGE6YTE3NTIxMGItZDk3YS00Njk1LThiY2EtMjkwZmFhMDc2ZmU2L2MycGEuYXNzZXJ0aW9ucy9jMnBhLmluZ3JlZGllbnQudjNwdmFsaWRhdGlvbkRlbHRhc6Nnc3VjY2Vzc4BtaW5mb3JtYXRpb25hbIGjZGNvZGV4HGluZ3JlZGllbnQudW5rbm93blByb3ZlbmFuY2VjdXJseGFzZWxmI2p1bWJmPS9jMnBhL3VybjpjMnBhOmExNzUyMTBiLWQ5N2EtNDY5NS04YmNhLTI5MGZhYTA3NmZlNi9jMnBhLmFzc2VydGlvbnMvYzJwYS5pbmdyZWRpZW50LnYza2V4cGxhbmF0aW9ueCtzb3VyY2U6IGluZ3JlZGllbnQgZG9lcyBub3QgaGF2ZSBwcm92ZW5hbmNlZ2ZhaWx1cmWAamluc3RhbmNlSUR4LHhtcDppaWQ6NDMxZDljOWQtNTc1YS00Nzg1LTgyZTktYWNhNTViMWY1Mjk4bmFjdGl2ZU1hbmlmZXN0o2N1cmx4PnNlbGYjanVtYmY9L2MycGEvdXJuOmMycGE6YTE3NTIxMGItZDk3YS00Njk1LThiY2EtMjkwZmFhMDc2ZmU2Y2FsZ2ZzaGEyNTZkaGFzaFggOmP9F61nLini0Srq1Hvc85uqFp7iCcKOBCsaw4aGSTxuY2xhaW1TaWduYXR1cmWjY3VybHhNc2VsZiNqdW1iZj0vYzJwYS91cm46YzJwYTphMTc1MjEwYi1kOTdhLTQ2OTUtOGJjYS0yOTBmYWEwNzZmZTYvYzJwYS5zaWduYXR1cmVjYWxnZnNoYTI1NmRoYXNoWCDFQ57h1cyrZKYMRKmCGO5psOAJZ7CQH09HjRsIIgV/4wAAAfVqdW1iAAAAQWp1bWRjYm9yABEAEIAAAKoAOJtxE2MycGEuYWN0aW9ucy52MgAAAAAYYzJzaN68JzE3IfVYktTfU8ZS6hsAAAGsY2JvcqFnYWN0aW9uc4KiZmFjdGlvbmtjMnBhLm9wZW5lZGpwYXJhbWV0ZXJzoWtpbmdyZWRpZW50c4GiY3VybHgtc2VsZiNqdW1iZj1jMnBhLmFzc2VydGlvbnMvYzJwYS5pbmdyZWRpZW50LnYzZGhhc2hYIFpwIOzSNWJEURASwsF6495B2S89vY5oKPXISq6mPRc6pGZhY3Rpb25rYzJwYS5lZGl0ZWRqcGFyYW1ldGVyc6FraW5ncmVkaWVudHOBomN1cmx4LXNlbGYjanVtYmY9YzJwYS5hc3NlcnRpb25zL2MycGEuaW5ncmVkaWVudC52M2RoYXNoWCBacCDs0jViRFEQEsLBeuPeQdkvPb2OaCj1yEqupj0XOnFkaWdpdGFsU291cmNlVHlwZXhTaHR0cDovL2N2LmlwdGMub3JnL25ld3Njb2Rlcy9kaWdpdGFsc291cmNldHlwZS9jb21wb3NpdGVXaXRoVHJhaW5lZEFsZ29yaXRobWljTWVkaWFrZGVzY3JpcHRpb252Q3JlYXRlZCBieSBSZWNyYWZ0IEFJLgAAAMRqdW1iAAAAQGp1bWRjYm9yABEAEIAAAKoAOJtxE2MycGEuaGFzaC5kYXRhAAAAABhjMnNoZq8pp8maVKnxRvwNHLvL5wAAAHxjYm9ypWpleGNsdXNpb25zgaJlc3RhcnQY22ZsZW5ndGgZMUhkbmFtZW5qdW1iZiBtYW5pZmVzdGNhbGdmc2hhMjU2ZGhhc2hYIM3m0NjwYUL7iQIDMmU+rzVsdVnbysE8hFElasryZ/DNY3BhZEkAAAAAAAAAAAAAAAKkanVtYgAAACdqdW1kYzJjbAARABCAAACqADibcQNjMnBhLmNsYWltLnYyAAAAAnVjYm9yp2ppbnN0YW5jZUlEeCx4bXA6aWlkOmI2YzMyMGNjLTM5MGYtNGVlZC04NTM3LThlMWZmZmJjMDhkYXRjbGFpbV9nZW5lcmF0b3JfaW5mb6NkbmFtZWpyZWNyYWZ0LmFpZ3ZlcnNpb254KDgxY2U4MmUyYzVjM2NiZmJlOGM2ZmJlMTc5ZDVmOGQ5MWM0MDljZTF3b3JnLmNvbnRlbnRhdXRoLmMycGFfcnNmMC45MC43aXNpZ25hdHVyZXhNc2VsZiNqdW1iZj0vYzJwYS91cm46YzJwYToyMDc3YzQ4ZC1jM2RjLTRlMTQtOGExNC03ZDlmYzBhN2E1NDQvYzJwYS5zaWduYXR1cmVyY3JlYXRlZF9hc3NlcnRpb25zgqJjdXJseCpzZWxmI2p1bWJmPWMycGEuYXNzZXJ0aW9ucy9jMnBhLmFjdGlvbnMudjJkaGFzaFggxxdllJD5Eh8KlOqMdnHXYbQLGS0bnjVK1zxMG5OVddSiY3VybHgpc2VsZiNqdW1iZj1jMnBhLmFzc2VydGlvbnMvYzJwYS5oYXNoLmRhdGFkaGFzaFggMSjL9IhHRMzrRBgowhtun1slLVQDuxDv8OlcfDfpZOhzZ2F0aGVyZWRfYXNzZXJ0aW9uc4GiY3VybHgtc2VsZiNqdW1iZj1jMnBhLmFzc2VydGlvbnMvYzJwYS5pbmdyZWRpZW50LnYzZGhhc2hYIFpwIOzSNWJEURASwsF6495B2S89vY5oKPXISq6mPRc6aGRjOnRpdGxleBpSZWNyYWZ0IEFJIEdlbmVyYXRlZCBJbWFnZWNhbGdmc2hhMjU2AAAH3Gp1bWIAAAAoanVtZGMyY3MAEQAQgAAAqgA4m3EDYzJwYS5zaWduYXR1cmUAAAAHrGNib3LShFkDsKIBJhghglkB5zCCAeMwggGJoAMCAQICCQC33lpjQ1FuejAKBggqhkjOPQQDAjBAMR8wHQYDVQQDDBZSZWNyYWZ0IFN0YWdpbmcgRGV2IENBMRAwDgYDVQQKDAdSZWNyYWZ0MQswCQYDVQQGEwJVUzAeFw0yNjA2MTIxOTQzNTBaFw0yNzA2MTIxOTQzNTBaMDcxCzAJBgNVBAYTAlVTMRMwEQYDVQQKEwpSZWNyYWZ0IEFJMRMwEQYDVQQDEwpyZWNyYWZ0LmFpMFkwEwYHKoZIzj0CAQYIKoZIzj0DAQcDQgAESmk1WwArIPw3hty3jsWHSA/1QOhBRu9xOjpJ2/iiIghScoEVM+Lnjds/7dqmG+giFL0vEb4DoogpX6KrGLcPNaN1MHMwDAYDVR0TAQH/BAIwADAOBgNVHQ8BAf8EBAMCBsAwEwYDVR0lBAwwCgYIKwYBBQUHAwQwHQYDVR0OBBYEFC8x6QXp/eki9cuCDx2vDJDLIV39MB8GA1UdIwQYMBaAFAILKjgayqqXSv/5v5MWaO2UeHm3MAoGCCqGSM49BAMCA0gAMEUCIFPISltGl775PEkIFRTZGsevWJvWnvBrE9kWU0MPgedQAiEAtA+AZBKEQ+DdK9mUZDctB2Wlt1iAsv0GRjfeYpReMsxZAb0wggG5MIIBX6ADAgECAgkAnPloO0+gE28wCgYIKoZIzj0EAwIwQDEfMB0GA1UEAwwWUmVjcmFmdCBTdGFnaW5nIERldiBDQTEQMA4GA1UECgwHUmVjcmFmdDELMAkGA1UEBhMCVVMwHhcNMjYwNjEyMTk0MDE2WhcNMjgwNjExMTk0MDE2WjBAMR8wHQYDVQQDDBZSZWNyYWZ0IFN0YWdpbmcgRGV2IENBMRAwDgYDVQQKDAdSZWNyYWZ0MQswCQYDVQQGEwJVUzBZMBMGByqGSM49AgEGCCqGSM49AwEHA0IABEPSEAZXFWymij2K0EnzoS/9NLO8VAwu0YpyLizvyNZPfcvcoeqFhfZD8Wj/rcdb9T3ji98q1arie99B9GRog8qjQjBAMA8GA1UdEwEB/wQFMAMBAf8wDgYDVR0PAQH/BAQDAgGGMB0GA1UdDgQWBBQCCyo4Gsqql0r/+b+TFmjtlHh5tzAKBggqhkjOPQQDAgNIADBFAiBUMDSJi5WA3kIY4BfmYqk24HLs0qpjicN0NpUP4bvNxQIhAPTvHC5v8X6FS6geI7XW7h84t1i/qdkTfg0RpMKWLMFboWNwYWRZA6QAAAAAAAAAAAAAAAAAAAAAAAAAAAAAAAAAAAAAAAAAAAAAAAAAAAAAAAAAAAAAAAAAAAAAAAAAAAAAAAAAAAAAAAAAAAAAAAAAAAAAAAAAAAAAAAAAAAAAAAAAAAAAAAAAAAAAAAAAAAAAAAAAAAAAAAAAAAAAAAAAAAAAAAAAAAAAAAAAAAAAAAAAAAAAAAAAAAAAAAAAAAAAAAAAAAAAAAAAAAAAAAAAAAAAAAAAAAAAAAAAAAAAAAAAAAAAAAAAAAAAAAAAAAAAAAAAAAAAAAAAAAAAAAAAAAAAAAAAAAAAAAAAAAAAAAAAAAAAAAAAAAAAAAAAAAAAAAAAAAAAAAAAAAAAAAAAAAAAAAAAAAAAAAAAAAAAAAAAAAAAAAAAAAAAAAAAAAAAAAAAAAAAAAAAAAAAAAAAAAAAAAAAAAAAAAAAAAAAAAAAAAAAAAAAAAAAAAAAAAAAAAAAAAAAAAAAAAAAAAAAAAAAAAAAAAAAAAAAAAAAAAAAAAAAAAAAAAAAAAAAAAAAAAAAAAAAAAAAAAAAAAAAAAAAAAAAAAAAAAAAAAAAAAAAAAAAAAAAAAAAAAAAAAAAAAAAAAAAAAAAAAAAAAAAAAAAAAAAAAAAAAAAAAAAAAAAAAAAAAAAAAAAAAAAAAAAAAAAAAAAAAAAAAAAAAAAAAAAAAAAAAAAAAAAAAAAAAAAAAAAAAAAAAAAAAAAAAAAAAAAAAAAAAAAAAAAAAAAAAAAAAAAAAAAAAAAAAAAAAAAAAAAAAAAAAAAAAAAAAAAAAAAAAAAAAAAAAAAAAAAAAAAAAAAAAAAAAAAAAAAAAAAAAAAAAAAAAAAAAAAAAAAAAAAAAAAAAAAAAAAAAAAAAAAAAAAAAAAAAAAAAAAAAAAAAAAAAAAAAAAAAAAAAAAAAAAAAAAAAAAAAAAAAAAAAAAAAAAAAAAAAAAAAAAAAAAAAAAAAAAAAAAAAAAAAAAAAAAAAAAAAAAAAAAAAAAAAAAAAAAAAAAAAAAAAAAAAAAAAAAAAAAAAAAAAAAAAAAAAAAAAAAAAAAAAAAAAAAAAAAAAAAAAAAAAAAAAAAAAAAAAAAAAAAAAAAAAAAAAAAAAAAAAAAAAAAAAAAAAAAAAAAAAAAAAAAAAAAAAAAAAAAAAAAAAAAAAAAAAAAAAAAAAAAAAAAAAAAAAAAAAAAAAAAAAAAAAAAAAAAAAAAAAAAAAAAAAAAAAAAAAAAAAAAAAAAAAAAAAAAAPZYQLeu6RY4UcyLHIvQYd1D3ThR/VDnhLfVXYIsVdoF/qoqEJz5RFKNSfxq0NTzLDAdquZ2+MtOyv/X1njK62sehbcAABYCanVtYgAAAEdqdW1kYzJtYQARABCAAACqADibcQN1cm46YzJwYTowNTc3YWYxNC0wZDAyLTQ0NTUtYWJlZS1mNjA3ZmFkNTU1OTYAAAALQWp1bWIAAAApanVtZGMyYXMAEQAQgAAAqgA4m3EDYzJwYS5hc3NlcnRpb25zAAAACF5qdW1iAAAARGp1bWRjYm9yABEAEIAAAKoAOJtxE2MycGEuaW5ncmVkaWVudC52MwAAAAAYYzJzaAlsWMNZRhTKse950Bk4UMsAAAgSY2JvcqdscmVsYXRpb25zaGlwaHBhcmVudE9maGRjOnRpdGxlZnNvdXJjZWlkYzpmb3JtYXRtaW1hZ2Uvc3ZnK3htbHF2YWxpZGF0aW9uUmVzdWx0c6JuYWN0aXZlTWFuaWZlc3SjZ3N1Y2Nlc3OGo2Rjb2RleB1jbGFpbVNpZ25hdHVyZS5pbnNpZGVWYWxpZGl0eWN1cmx4TXNlbGYjanVtYmY9L2MycGEvdXJuOmMycGE6MjA3N2M0OGQtYzNkYy00ZTE0LThhMTQtN2Q5ZmMwYTdhNTQ0L2MycGEuc2lnbmF0dXJla2V4cGxhbmF0aW9udWNsYWltIHNpZ25hdHVyZSB2YWxpZKNkY29kZXgYY2xhaW1TaWduYXR1cmUudmFsaWRhdGVkY3VybHhNc2VsZiNqdW1iZj0vYzJwYS91cm46YzJwYToyMDc3YzQ4ZC1jM2RjLTRlMTQtOGExNC03ZDlmYzBhN2E1NDQvYzJwYS5zaWduYXR1cmVrZXhwbGFuYXRpb251Y2xhaW0gc2lnbmF0dXJlIHZhbGlko2Rjb2RleBlhc3NlcnRpb24uaGFzaGVkVVJJLm1hdGNoY3VybHhec2VsZiNqdW1iZj0vYzJwYS91cm46YzJwYToyMDc3YzQ4ZC1jM2RjLTRlMTQtOGExNC03ZDlmYzBhN2E1NDQvYzJwYS5hc3NlcnRpb25zL2MycGEuYWN0aW9ucy52MmtleHBsYW5hdGlvbng+aGFzaGVkIHVyaSBtYXRjaGVkOiBzZWxmI2p1bWJmPWMycGEuYXNzZXJ0aW9ucy9jMnBhLmFjdGlvbnMudjKjZGNvZGV4GWFzc2VydGlvbi5oYXNoZWRVUkkubWF0Y2hjdXJseF1zZWxmI2p1bWJmPS9jMnBhL3VybjpjMnBhOjIwNzdjNDhkLWMzZGMtNGUxNC04YTE0LTdkOWZjMGE3YTU0NC9jMnBhLmFzc2VydGlvbnMvYzJwYS5oYXNoLmRhdGFrZXhwbGFuYXRpb254PWhhc2hlZCB1cmkgbWF0Y2hlZDogc2VsZiNqdW1iZj1jMnBhLmFzc2VydGlvbnMvYzJwYS5oYXNoLmRhdGGjZGNvZGV4GWFzc2VydGlvbi5oYXNoZWRVUkkubWF0Y2hjdXJseGFzZWxmI2p1bWJmPS9jMnBhL3VybjpjMnBhOjIwNzdjNDhkLWMzZGMtNGUxNC04YTE0LTdkOWZjMGE3YTU0NC9jMnBhLmFzc2VydGlvbnMvYzJwYS5pbmdyZWRpZW50LnYza2V4cGxhbmF0aW9ueEFoYXNoZWQgdXJpIG1hdGNoZWQ6IHNlbGYjanVtYmY9YzJwYS5hc3NlcnRpb25zL2MycGEuaW5ncmVkaWVudC52M6NkY29kZXgYYXNzZXJ0aW9uLmRhdGFIYXNoLm1hdGNoY3VybHhdc2VsZiNqdW1iZj0vYzJwYS91cm46YzJwYToyMDc3YzQ4ZC1jM2RjLTRlMTQtOGExNC03ZDlmYzBhN2E1NDQvYzJwYS5hc3NlcnRpb25zL2MycGEuaGFzaC5kYXRha2V4cGxhbmF0aW9ub2RhdGEgaGFzaCB2YWxpZG1pbmZvcm1hdGlvbmFsgGdmYWlsdXJlgaNkY29kZXgbc2lnbmluZ0NyZWRlbnRpYWwudW50cnVzdGVkY3VybHhNc2VsZiNqdW1iZj0vYzJwYS91cm46YzJwYToyMDc3YzQ4ZC1jM2RjLTRlMTQtOGExNC03ZDlmYzBhN2E1NDQvYzJwYS5zaWduYXR1cmVrZXhwbGFuYXRpb254HXNpZ25pbmcgY2VydGlmaWNhdGUgdW50cnVzdGVkcGluZ3JlZGllbnREZWx0YXOBonZpbmdyZWRpZW50QXNzZXJ0aW9uVVJJeGFzZWxmI2p1bWJmPS9jMnBhL3VybjpjMnBhOjIwNzdjNDhkLWMzZGMtNGUxNC04YTE0LTdkOWZjMGE3YTU0NC9jMnBhLmFzc2VydGlvbnMvYzJwYS5pbmdyZWRpZW50LnYzcHZhbGlkYXRpb25EZWx0YXOjZ3N1Y2Nlc3OBo2Rjb2RleB1pbmdyZWRpZW50Lm1hbmlmZXN0LnZhbGlkYXRlZGN1cmx4PnNlbGYjanVtYmY9L2MycGEvdXJuOmMycGE6YTE3NTIxMGItZDk3YS00Njk1LThiY2EtMjkwZmFhMDc2ZmU2a2V4cGxhbmF0aW9ud2luZ3JlZGllbnQgaGFzaCBtYXRjaGVkbWluZm9ybWF0aW9uYWyAZ2ZhaWx1cmWAamluc3RhbmNlSUR4LHhtcDppaWQ6ZWM0MGRiYWUtNDU5Ny00YzZmLWE4MWUtYTZmMzE4NWRkMmFjbmFjdGl2ZU1hbmlmZXN0o2N1cmx4PnNlbGYjanVtYmY9L2MycGEvdXJuOmMycGE6MjA3N2M0OGQtYzNkYy00ZTE0LThhMTQtN2Q5ZmMwYTdhNTQ0Y2FsZ2ZzaGEyNTZkaGFzaFggFFMZwmhZ31pAEMF+CVj6U9dVPk42gF2G+g+aJUK2aYtuY2xhaW1TaWduYXR1cmWjY3VybHhNc2VsZiNqdW1iZj0vYzJwYS91cm46YzJwYToyMDc3YzQ4ZC1jM2RjLTRlMTQtOGExNC03ZDlmYzBhN2E1NDQvYzJwYS5zaWduYXR1cmVjYWxnZnNoYTI1NmRoYXNoWCAY4MBfQgaV/WyBeIG1kKdRcY/VvpmOcXbb40Id/TIW0QAAAe5qdW1iAAAAQWp1bWRjYm9yABEAEIAAAKoAOJtxE2MycGEuYWN0aW9ucy52MgAAAAAYYzJzaCu6vXtd1BLxAZbXvduoJdMAAAGlY2JvcqFnYWN0aW9uc4KiZmFjdGlvbmtjMnBhLm9wZW5lZGpwYXJhbWV0ZXJzoWtpbmdyZWRpZW50c4GiY3VybHgtc2VsZiNqdW1iZj1jMnBhLmFzc2VydGlvbnMvYzJwYS5pbmdyZWRpZW50LnYzZGhhc2hYIHVV+UAx9xcoSYqZqwsqage6Bt4TKpolQMlPesjTV9U9pGZhY3Rpb25sYzJwYS5jcmVhdGVkanBhcmFtZXRlcnOha2luZ3JlZGllbnRzgaJjdXJseC1zZWxmI2p1bWJmPWMycGEuYXNzZXJ0aW9ucy9jMnBhLmluZ3JlZGllbnQudjNkaGFzaFggdVX5QDH3FyhJipmrCypqB7oG3hMqmiVAyU96yNNX1T1xZGlnaXRhbFNvdXJjZVR5cGV4QWh0dHA6Ly9jdi5pcHRjLm9yZy9uZXdzY29kZXMvZGlnaXRhbHNvdXJjZXR5cGUvY29tcG9zaXRlU3ludGhldGlja2Rlc2NyaXB0aW9ueB9Db21wb3NlZCBpbiB0aGUgUmVjcmFmdCBlZGl0b3IuAAAAxGp1bWIAAABAanVtZGNib3IAEQAQgAAAqgA4m3ETYzJwYS5oYXNoLmRhdGEAAAAAGGMyc2hPvrVJP2LpTGQP+t+znH3kAAAAfGNib3KlamV4Y2x1c2lvbnOBomVzdGFydBjsZmxlbmd0aBlOoGRuYW1lbmp1bWJmIG1hbmlmZXN0Y2FsZ2ZzaGEyNTZkaGFzaFgg4phpouY4WHwAADqet9eYWUGgLJnMtkEIwo4TioiXkc5jcGFkSQAAAAAAAAAAAAAAApZqdW1iAAAAJ2p1bWRjMmNsABEAEIAAAKoAOJtxA2MycGEuY2xhaW0udjIAAAACZ2Nib3Knamluc3RhbmNlSUR4LHhtcDppaWQ6OWI2ZGRjYTgtY2NmMy00M2VkLWFmYmUtODgzYWM0OTVkNzc0dGNsYWltX2dlbmVyYXRvcl9pbmZvo2RuYW1lanJlY3JhZnQuYWlndmVyc2lvbngoODFjZTgyZTJjNWMzY2JmYmU4YzZmYmUxNzlkNWY4ZDkxYzQwOWNlMXdvcmcuY29udGVudGF1dGguYzJwYV9yc2YwLjkwLjdpc2lnbmF0dXJleE1zZWxmI2p1bWJmPS9jMnBhL3VybjpjMnBhOjA1NzdhZjE0LTBkMDItNDQ1NS1hYmVlLWY2MDdmYWQ1NTU5Ni9jMnBhLnNpZ25hdHVyZXJjcmVhdGVkX2Fzc2VydGlvbnOComN1cmx4KnNlbGYjanVtYmY9YzJwYS5hc3NlcnRpb25zL2MycGEuYWN0aW9ucy52MmRoYXNoWCCrZE4HBWR8rrYYVKDHI8Y7GojuFAbqhRkzIBgQiIlCXKJjdXJseClzZWxmI2p1bWJmPWMycGEuYXNzZXJ0aW9ucy9jMnBhLmhhc2guZGF0YWRoYXNoWCD9NiTN7hircjOm7ncrc0JXdhqIUgsMiOTNn0N01wguunNnYXRoZXJlZF9hc3NlcnRpb25zgaJjdXJseC1zZWxmI2p1bWJmPWMycGEuYXNzZXJ0aW9ucy9jMnBhLmluZ3JlZGllbnQudjNkaGFzaFggdVX5QDH3FyhJipmrCypqB7oG3hMqmiVAyU96yNNX1T1oZGM6dGl0bGVtUmVjcmFmdCBJbWFnZWNhbGdmc2hhMjU2AAAH3Gp1bWIAAAAoanVtZGMyY3MAEQAQgAAAqgA4m3EDYzJwYS5zaWduYXR1cmUAAAAHrGNib3LShFkDsKIBJhghglkB5zCCAeMwggGJoAMCAQICCQC33lpjQ1FuejAKBggqhkjOPQQDAjBAMR8wHQYDVQQDDBZSZWNyYWZ0IFN0YWdpbmcgRGV2IENBMRAwDgYDVQQKDAdSZWNyYWZ0MQswCQYDVQQGEwJVUzAeFw0yNjA2MTIxOTQzNTBaFw0yNzA2MTIxOTQzNTBaMDcxCzAJBgNVBAYTAlVTMRMwEQYDVQQKEwpSZWNyYWZ0IEFJMRMwEQYDVQQDEwpyZWNyYWZ0LmFpMFkwEwYHKoZIzj0CAQYIKoZIzj0DAQcDQgAESmk1WwArIPw3hty3jsWHSA/1QOhBRu9xOjpJ2/iiIghScoEVM+Lnjds/7dqmG+giFL0vEb4DoogpX6KrGLcPNaN1MHMwDAYDVR0TAQH/BAIwADAOBgNVHQ8BAf8EBAMCBsAwEwYDVR0lBAwwCgYIKwYBBQUHAwQwHQYDVR0OBBYEFC8x6QXp/eki9cuCDx2vDJDLIV39MB8GA1UdIwQYMBaAFAILKjgayqqXSv/5v5MWaO2UeHm3MAoGCCqGSM49BAMCA0gAMEUCIFPISltGl775PEkIFRTZGsevWJvWnvBrE9kWU0MPgedQAiEAtA+AZBKEQ+DdK9mUZDctB2Wlt1iAsv0GRjfeYpReMsxZAb0wggG5MIIBX6ADAgECAgkAnPloO0+gE28wCgYIKoZIzj0EAwIwQDEfMB0GA1UEAwwWUmVjcmFmdCBTdGFnaW5nIERldiBDQTEQMA4GA1UECgwHUmVjcmFmdDELMAkGA1UEBhMCVVMwHhcNMjYwNjEyMTk0MDE2WhcNMjgwNjExMTk0MDE2WjBAMR8wHQYDVQQDDBZSZWNyYWZ0IFN0YWdpbmcgRGV2IENBMRAwDgYDVQQKDAdSZWNyYWZ0MQswCQYDVQQGEwJVUzBZMBMGByqGSM49AgEGCCqGSM49AwEHA0IABEPSEAZXFWymij2K0EnzoS/9NLO8VAwu0YpyLizvyNZPfcvcoeqFhfZD8Wj/rcdb9T3ji98q1arie99B9GRog8qjQjBAMA8GA1UdEwEB/wQFMAMBAf8wDgYDVR0PAQH/BAQDAgGGMB0GA1UdDgQWBBQCCyo4Gsqql0r/+b+TFmjtlHh5tzAKBggqhkjOPQQDAgNIADBFAiBUMDSJi5WA3kIY4BfmYqk24HLs0qpjicN0NpUP4bvNxQIhAPTvHC5v8X6FS6geI7XW7h84t1i/qdkTfg0RpMKWLMFboWNwYWRZA6QAAAAAAAAAAAAAAAAAAAAAAAAAAAAAAAAAAAAAAAAAAAAAAAAAAAAAAAAAAAAAAAAAAAAAAAAAAAAAAAAAAAAAAAAAAAAAAAAAAAAAAAAAAAAAAAAAAAAAAAAAAAAAAAAAAAAAAAAAAAAAAAAAAAAAAAAAAAAAAAAAAAAAAAAAAAAAAAAAAAAAAAAAAAAAAAAAAAAAAAAAAAAAAAAAAAAAAAAAAAAAAAAAAAAAAAAAAAAAAAAAAAAAAAAAAAAAAAAAAAAAAAAAAAAAAAAAAAAAAAAAAAAAAAAAAAAAAAAAAAAAAAAAAAAAAAAAAAAAAAAAAAAAAAAAAAAAAAAAAAAAAAAAAAAAAAAAAAAAAAAAAAAAAAAAAAAAAAAAAAAAAAAAAAAAAAAAAAAAAAAAAAAAAAAAAAAAAAAAAAAAAAAAAAAAAAAAAAAAAAAAAAAAAAAAAAAAAAAAAAAAAAAAAAAAAAAAAAAAAAAAAAAAAAAAAAAAAAAAAAAAAAAAAAAAAAAAAAAAAAAAAAAAAAAAAAAAAAAAAAAAAAAAAAAAAAAAAAAAAAAAAAAAAAAAAAAAAAAAAAAAAAAAAAAAAAAAAAAAAAAAAAAAAAAAAAAAAAAAAAAAAAAAAAAAAAAAAAAAAAAAAAAAAAAAAAAAAAAAAAAAAAAAAAAAAAAAAAAAAAAAAAAAAAAAAAAAAAAAAAAAAAAAAAAAAAAAAAAAAAAAAAAAAAAAAAAAAAAAAAAAAAAAAAAAAAAAAAAAAAAAAAAAAAAAAAAAAAAAAAAAAAAAAAAAAAAAAAAAAAAAAAAAAAAAAAAAAAAAAAAAAAAAAAAAAAAAAAAAAAAAAAAAAAAAAAAAAAAAAAAAAAAAAAAAAAAAAAAAAAAAAAAAAAAAAAAAAAAAAAAAAAAAAAAAAAAAAAAAAAAAAAAAAAAAAAAAAAAAAAAAAAAAAAAAAAAAAAAAAAAAAAAAAAAAAAAAAAAAAAAAAAAAAAAAAAAAAAAAAAAAAAAAAAAAAAAAAAAAAAAAAAAAAAAAAAAAAAAAAAAAAAAAAAAAAAAAAAAAAAAAAAAAAAAAAAAAAAAAAAAAAAAAAAAAAAAAAAAAAAAAAAAAAAAAAAAAAAAAAAAAAAAAAAAAAAAAAAAAAAAAAAAAAAAAAAAAAAAAAAAAAAAAAAAAAAAAAAAAAAAAAAAAAAAAAAAAAAAAAAAAAAAAAAAAAAAAAAAAAAAAAAAAAAAAAAAAAAAAAAAAAPZYQBLbZw6KSMx2ue0QCDjzLWC3evINBeYQ10OwD+eJKFz2F/+seXLMmQwHrTw7OS8yAt224nGYiunKtnn0xTyvXjA=</c2pa:manifest></metadata><path fill="#1D2A21" transform="matrix(0.674419 0 0 0.674479 0 -7.62939e-06)" d="M2029.73 617.484C2092.64 616.657 2158.8 633.281 2190.57 693.723C2213.07 736.526 2209.96 792.91 2209.7 840.031C2209.26 881.702 2209.47 923.377 2210.32 965.042C2210.55 979.009 2208.88 1005.2 2218.27 1015.31C2225.38 1022.96 2240.55 1021.16 2250.54 1021.62C2249.69 1035.77 2250.24 1051.06 2250.37 1065.25C2250.51 1080.04 2246.88 1082.14 2232.49 1083.83C2174.97 1090.6 2141.91 1072.19 2139.01 1011.16C2117.82 1040.02 2104.05 1059.14 2069.32 1075.03C2026.17 1094.77 1970.41 1094.1 1926.19 1078.08C1894.01 1066.42 1867.22 1042 1852.91 1010.83C1852.17 1009.56 1849.08 1001 1848.49 999.115C1838.14 966.118 1838.19 924.263 1854.42 893.397C1907.09 793.224 2045.45 823.316 2132.02 795.435C2133.57 768.517 2131.25 733.545 2114.89 711.004C2084.41 668.993 2005.33 668.696 1965.61 696.944C1943.44 712.712 1935.6 737.569 1931.67 763.536C1918.92 762.542 1869.96 756.642 1858.6 753.762C1864.75 657.255 1944.22 620.054 2029.73 617.484ZM1945.43 1009.63C1957.24 1018.17 1968.19 1024.26 1982.72 1027.06C2028.11 1035.83 2079.65 1023.18 2107.83 984.515C2130.82 952.972 2132.83 920.16 2133.17 882.796C2133.24 874.848 2134.36 858.328 2132.06 851.238L2129.47 850.003C2106.39 856.505 2076.75 859.395 2052.33 862.325C2009.32 867.485 1952.7 870.208 1928.34 912.637C1917.88 930.862 1917.01 953.963 1922.89 973.675C1927.56 989.365 1933.8 998.575 1945.43 1009.63Z"/><path fill="#1D2A21" transform="matrix(0.674419 0 0 0.674479 0 -7.62939e-06)" d="M1150.27 625.375C1213.42 624.67 1277.22 629.037 1340.46 628.336C1371.86 627.987 1403.25 627.091 1434.66 626.563C1451.19 626.285 1468.2 625.183 1484.66 625.86C1485.68 641.171 1485.68 660.632 1486.11 676.265C1481.87 682.701 1473.28 693.08 1468.27 699.852L1420.33 764.192C1357.83 849.266 1292.94 934.429 1232.06 1020.11C1290.42 1020.05 1348.77 1019.45 1407.11 1018.31C1419.64 1018.12 1480.08 1016.1 1488.61 1018.41C1492.2 1025.18 1489.82 1043.26 1490.08 1051.58C1490.35 1060.12 1493.4 1074.71 1488.37 1081.36C1472.89 1081.89 1456.98 1080.77 1441.37 1080.52C1373.34 1079.46 1305.39 1077.12 1237.35 1079.3C1224.62 1079.71 1206.59 1080.34 1194.27 1080.09C1182.3 1079.85 1147.95 1083.46 1138.06 1080.14C1134.53 1075.2 1135.93 1036.21 1135.97 1027.61C1155.36 1000.61 1176.73 974.096 1196.55 947.286C1224.54 909.43 1252.22 871.386 1279.97 833.361C1315.6 784.549 1354.08 736.342 1389.02 687.121C1366.71 686.187 1154.64 691.705 1149.77 689.058C1148.56 688.399 1148.27 685.69 1148.05 684.47C1146.78 677.498 1146.44 633.102 1148.35 628.051C1148.65 627.248 1149.74 626.112 1150.27 625.375Z"/><path fill="#1D2A21" transform="matrix(0.674419 0 0 0.674479 0 -7.62939e-06)" d="M501.672 626.242C522.053 625.341 568.824 624.375 587.682 627.558C602.646 666.43 614.977 702.863 629.339 741.553L722.457 990.927L824.113 718.575C827.397 709.831 855.852 628.916 859.257 628.234C867.959 626.491 932.409 624.936 939.964 627.858C940.927 632.228 917.463 686.297 914.228 694.333C900.529 724.909 886.397 765.137 873.69 796.938L805.234 965.975C798.531 982.918 765.164 1068.63 757.681 1078.34C750.548 1081.67 694.219 1082.08 684.948 1080.01C681.101 1077.67 552.795 757.415 538.687 721.803C530.936 701.965 522.886 682.245 514.541 662.649C510.072 652.287 504.947 641.214 500.742 630.718C499.837 628.459 500.608 628.083 501.672 626.242Z"/><path fill="#1D2A21" transform="matrix(0.674419 0 0 0.674479 0 -7.62939e-06)" d="M1620.83 502.24C1626.69 501.28 1670.79 498.532 1675.94 499.295C1678.48 502.973 1677.06 613.484 1676.74 626.958C1695.94 626.49 1717.71 626.958 1737.13 626.799C1751.02 626.686 1786.02 625.498 1797.4 627.834C1800.12 633.77 1798.6 677.792 1798.39 687.551C1780.28 688.955 1686.78 684.254 1677.33 687.638C1675.92 694.043 1676.47 714.072 1676.49 721.673L1676.72 786.863C1676.92 839.231 1676.55 891.564 1676.51 943.927C1676.5 952.935 1677.07 965.033 1679.42 973.548C1679.5 978.132 1682.49 987.421 1684.29 991.651C1703.75 1037.24 1760.94 1025.85 1796.54 1010.96C1800.66 1028.92 1804.39 1048.5 1807.85 1066.65C1782.41 1081.36 1753.56 1089.16 1724.17 1089.25C1584.23 1090.19 1599.2 973.977 1599.27 874.686L1598.85 687.211C1574.21 686.849 1549.53 687.683 1524.91 687.194C1525.16 670.395 1524.94 653.593 1524.26 636.806C1545.82 630.465 1565 631.222 1586.43 618.105C1613.98 601.246 1613.05 562.949 1617.62 534.319C1619.44 522.979 1617.89 514.934 1620.83 502.24Z"/><path fill="#1D2A21" transform="matrix(0.674419 0 0 0.674479 0 -7.62939e-06)" d="M1073.88 691.684C1073.13 695.116 1072.9 710.773 1072.82 715.055C1072.52 734.041 1072.42 753.031 1072.53 772.02C1072.19 832.83 1072.19 893.641 1072.53 954.451C1072.72 970.377 1076.92 1071.33 1073.34 1079.38C1066.04 1082.1 1009.37 1079.93 998.305 1080.1C995.59 1080.14 995.223 1079.02 994.032 1077.26C992.846 1068.36 993.94 1026.37 994.018 1015.7L994.741 882.591L993.844 699.644C993.758 689.061 992.22 637.373 993.756 631.211C998.683 628.47 1068.35 624.593 1074.37 625.747C1074.79 647.727 1074.62 669.713 1073.88 691.684Z"/><path fill="#1D2A21" transform="matrix(0.674419 0 0 0.674479 0 -7.62939e-06)" d="M1020.55 445.868C1050.05 438.654 1079.78 456.873 1086.74 486.437C1093.71 516 1075.24 545.573 1045.62 552.287C1016.35 558.922 987.203 540.719 980.321 511.506C973.44 482.294 991.396 452.996 1020.55 445.868Z"/><path fill="#EBE7DA" fill-opacity="0.011764706" transform="matrix(0.674419 0 0 0.674479 0 -7.62939e-06)" d="M1677.33 687.638C1680.36 696.507 1682.19 965.263 1679.42 973.548C1677.07 965.033 1676.5 952.935 1676.51 943.927C1676.55 891.564 1676.92 839.231 1676.72 786.863L1676.49 721.673C1676.47 714.072 1675.92 694.043 1677.33 687.638Z"/><path fill="#EBE7DA" fill-opacity="0.0078431377" transform="matrix(0.674419 0 0 0.674479 0 -7.62939e-06)" d="M1074.37 625.747C1076.47 627.087 1077.8 627.423 1077.97 630.335C1079.09 648.609 1080.4 675.096 1073.88 691.684C1074.62 669.713 1074.79 647.727 1074.37 625.747Z"/></svg>